<?xml version="1.0" encoding="UTF-8"?>
<!DOCTYPE svg PUBLIC "-//W3C//DTD SVG 1.1//EN" "http://www.w3.org/Graphics/SVG/1.1/DTD/svg11.dtd">
<!-- Creator: CorelDRAW -->
<svg xmlns="http://www.w3.org/2000/svg" xml:space="preserve" width="210mm" height="297mm" version="1.1" style="shape-rendering:geometricPrecision; text-rendering:geometricPrecision; image-rendering:optimizeQuality; fill-rule:evenodd; clip-rule:evenodd"
viewBox="0 0 21000 29700"
 xmlns:xlink="http://www.w3.org/1999/xlink"
 xmlns:xodm="http://www.corel.com/coreldraw/odm/2003">
 <defs>
  <style type="text/css">
   <![CDATA[
    .fil4 {fill:#4B4B4D}
    .fil3 {fill:#01AFEF}
    .fil0 {fill:#96292A}
    .fil1 {fill:#EC2790}
    .fil2 {fill:#FFF213}
    .fil5 {fill:#373435;fill-rule:nonzero}
   ]]>
  </style>
 </defs>
 <g id="Camada_x0020_1">
  <metadata id="CorelCorpID_0Corel-Layer"/>
  <path class="fil0" d="M17064.49 16757.41l-0.18 -27.68 -158.66 -259.99c-100.18,-158.3 -1096.41,-1821.96 -1120.64,-1830.9l-1201.17 6.3c9.24,41.42 197.58,378.69 242.99,456.46 50.23,86.01 62.3,93.64 -60.64,93.95 -151.39,0.38 -836,23.81 -927.03,-1.45 -6.93,-55.33 95.18,-208.95 123.76,-269.12 25.74,-54.22 124.41,-231.91 129.71,-275.25 -373.49,-5.21 -761.69,-1.94 -1135.33,5.48 -63.17,1.26 -65.17,5.61 -88.74,49.26 -17.79,32.94 -32.57,56.53 -50.94,88.45 -272.27,473.17 -565.28,968.03 -827.86,1438.06l-209.93 365.76c-26.71,45.16 -98.06,139.93 -92.59,197.03 67.81,20.74 733.59,2.63 865.68,1.56 470.47,-3.81 363.6,41.51 490.85,-161.73l237.37 -421.77c111.98,-203.31 92.68,-221.45 215.33,-222.08 576.82,-3 1177.13,-14.77 1749.43,-11.7 87.26,0.47 95.53,22.12 131.43,82.69l410.53 689.01c43.96,47.42 323.88,23.32 411.57,22.79 124.94,-0.74 810.26,7.68 865.06,-15.13z"/>
  <path class="fil0" d="M3871.47 14935.09l6.6 1004.64c4.46,689.4 878.96,907.49 1446.96,901.99l2176.77 -13.77c142.08,0.3 118.75,30.46 117.33,-260.83l-6.08 -467.05 -1836.86 7.16c-180.48,1.9 -667.56,21.03 -695.5,-260.74 -6.25,-63.01 -7.5,-262.98 0.97,-318.3 141.75,-26.52 454.19,-14.82 616.33,-15.57l1912.69 -14.79 -0.28 -604.35c-13.5,-53.12 -103.39,-34.3 -204.87,-33.41 -238.27,2.09 -2185.79,28.45 -2270.67,2.66 -75.3,-22.88 -59.62,-63.88 -73.03,-141.68 -336.65,-7.83 -769.41,3.29 -1108.44,6.27 -75.32,0.42 -84.54,-17.25 -84.21,57.88 0.22,49.65 2,99.99 2.29,149.89z"/>
  <path class="fil0" d="M7902.66 14825.71c3.36,625.09 0.97,1287.84 12.12,1906.98l2.43 82.88c47.66,21.88 940.65,3.81 1082.24,2.92 123.1,-0.77 89.07,-2.38 86.27,-344.43l-6.36 -874.41c-1.55,-117.95 -23.3,-109.27 190.71,-109.91l1702.33 -10.65c496.42,-4.44 969.91,-123.01 1336.02,-431.04 56.95,-47.92 219.43,-234.95 209.38,-369.96 -61.4,-14.2 -1009.05,0.21 -1178.38,1.22 -129.58,0.77 -59.08,4.43 -166.57,70.09 -187.65,114.63 -524.15,89.56 -771.98,91.45l-1209.3 7.35c-167.02,2.19 -97.98,-29.68 -130.9,-151.24l-1151.56 6.42c-11.56,35.93 -6.68,80.01 -6.45,122.33z"/>
  <path class="fil0" d="M7895.79 13802.46l2.36 511.63c1.09,140.06 -34.47,114.43 276.74,112.46l800 -4.76c133.07,-0.93 58.52,-28.91 113.81,-84.58 36.71,-37.57 191.91,-19 276.24,-19.66 330.3,-2.59 1508.47,-26.25 1676.89,11.08 136.24,30.2 119.95,79.36 305.15,77.79 363.93,-3.1 821.46,3.02 1168.43,-10.53 -19.4,-192.63 -256.65,-393.72 -403.91,-485.71 -581.24,-363.1 -1272.46,-266.44 -1922.98,-278.04 -389.51,-6.95 -942.95,6.64 -1348.84,8.15l-846.5 6.06c-117.74,0.7 -98.48,-16.19 -97.39,156.11z"/>
  <path class="fil0" d="M3917.94 14448c76.32,17.53 371.47,2.77 470.91,2.68 158.09,-0.15 316.31,-2.01 474.42,-3.14 57.02,-0.41 174.93,14.96 215.17,-21.17 53.39,-47.95 67.24,-63.68 163.41,-77.2 135.08,-18.99 1830.12,-14.78 2244.03,-18.99 68.45,-0.69 104.06,2.26 115.63,-10.25 12.75,-31.29 12.58,-572.74 2.78,-637.31 -7.75,-51.15 -65.14,-33.39 -122.72,-33.1l-1776.76 11.25c-516.44,4.43 -903.79,4.39 -1340.47,263.84 -50.39,29.93 -152.06,102.05 -187.24,138.7 -61.11,63.66 -280.62,281.16 -259.16,384.69z"/>
  <path class="fil0" d="M13025.47 14391.3l1149.41 -2.72c44.21,-50.81 51.13,-113.76 137.54,-111.81 69.26,1.56 115.85,64.79 138.44,108.06l1251.41 -6.22 -250.82 -415.08c-11.06,-12.97 -20.58,-19.05 -32.94,-32.01 -12.79,-13.41 -17.45,-21.34 -30.57,-34.73 -350.67,-357.76 -1492.11,-401.67 -1919.42,-125.26 -114.41,74.01 -176.63,150.54 -249.83,280.51 -62.98,111.83 -132.63,229.9 -193.22,339.26z"/>
  <path class="fil1" d="M12944.14 13283.93c3.29,-220.35 84.98,-399.25 195.78,-512.36 49.87,-50.9 125.47,-112.62 194.6,-159.17 142.29,-95.8 270.8,-202.12 346.16,-360.78 44.33,-93.31 63.81,-176.83 59.9,-289.95 -24.73,-716.86 -1412.47,-584.63 -1012.57,820.59 32.88,115.55 93.59,279.93 146.6,385.62 19.06,38.01 40.43,90.81 69.53,116.05z"/>
  <path class="fil2" d="M13052.92 13666.79c58.62,-29.45 84.07,-116.05 308.87,-194.67 205.95,-72.02 579.72,-47.18 668.63,-338.23 120.07,-393.06 -461.64,-729.77 -776.56,-267.51 -123.63,181.48 -221.01,528.43 -200.94,800.41z"/>
  <path class="fil3" d="M12537.12 13694.63c33.72,-359.58 -17.25,-946.02 -418.46,-1055.77 -403.52,-110.38 -758.08,453.66 -206.35,705.76 117.87,53.86 243.48,70.94 356.68,134.97 67.09,37.95 159.75,101.4 208.15,154 15.7,17.06 37.24,53.31 59.98,61.04z"/>
  <path class="fil4" d="M12741.49 13537.9c-149.68,40.18 -221.99,186.94 -188.34,337.21 75.87,338.83 605.24,245.95 506.77,-139.53 -31.97,-125.15 -153.43,-241.98 -318.43,-197.68z"/>
  <path class="fil5" d="M5103.75 12688.79l-453.06 0 0 402.68 453.06 0 0 -141.62 -236.8 0 0 -108.36 378.16 0 0 219.19c0,58.08 -10.67,97.69 -32.02,118.63 -21.14,21.14 -62.22,31.61 -122.83,31.61l-430.1 0c-60.61,0 -101.49,-10.47 -122.63,-31.61 -21.15,-20.94 -31.82,-60.55 -31.82,-118.63l0 -334.95c0,-57.67 10.67,-97.08 31.82,-118.42 21.14,-21.14 62.02,-31.81 122.63,-31.81l430.1 0c59.81,0 100.68,10.47 122.43,31.19 21.55,20.94 32.42,58.5 32.42,112.89l0 14.57 -141.36 26.06 0 -71.42zm916.8 -3.69l-326 0 0 177.32 326 0c25.17,0 42.29,-3.69 51.55,-11.08 9.26,-7.6 13.89,-20.73 13.89,-39.61l0 -76.56c0,-18.47 -4.63,-31.4 -13.89,-38.99 -9.26,-7.39 -26.38,-11.08 -51.55,-11.08zm-468.57 525.82l0 -635.42 532.81 0c49.73,0 85.78,9.64 107.92,29.14 22.36,19.29 33.43,50.49 33.43,93.79l0 149.42c0,42.89 -11.07,74.09 -33.43,93.59 -22.14,19.5 -58.19,29.35 -107.92,29.35l-81.35 0 288.14 240.13 -208.2 0 -251.3 -240.13 -137.53 0 0 240.13 -142.57 0zm1128.23 -253.68l273.45 0 -134.71 -258.6 -138.74 258.6zm-279.09 253.68l352.99 -635.42 139.94 0 357.62 635.42 -162.9 0 -74.91 -139.16 -395.47 0 -72.69 139.16 -144.58 0zm339.5 -703.15l120.41 -208.11 130.89 0 -173.98 208.11 -77.32 0zm711.61 703.15l0 -635.42 630.66 0 0 110.83 -485.68 0 0 167.47 262.17 0 0 115.75 -262.17 0 0 241.37 -144.98 0zm810.48 0l0 -635.42 144.98 0 0 635.42 -144.98 0zm986.87 -522.13l-391.45 0 0 402.68 391.45 0 0 -136.69 144.97 30.78 0 75.12c0,58.08 -10.67,97.69 -32.21,118.63 -21.35,21.14 -62.02,31.61 -122.23,31.61l-372.52 0c-60.61,0 -101.48,-10.47 -122.63,-31.61 -21.14,-20.94 -31.81,-60.55 -31.81,-118.63l0 -335.15c0,-57.47 10.67,-97.08 31.81,-118.22 21.15,-21.14 62.02,-31.81 122.63,-31.81l372.52 0c60.21,0 100.88,10.67 122.23,31.81 21.54,21.14 32.21,60.75 32.21,118.22l0 60.34 -144.97 23.6 0 -120.68zm582.73 268.45l273.45 0 -134.71 -258.6 -138.74 258.6zm-279.08 253.68l352.98 -635.42 139.95 0 357.62 635.42 -162.9 0 -74.91 -139.16 -395.47 0 -72.7 139.16 -144.57 0z"/>
 </g>
</svg>
